<svg version="1.1" id="Layer_1" xmlns="http://www.w3.org/2000/svg" xmlns:xlink="http://www.w3.org/1999/xlink" x="0px" y="0px"
	 width="100%" viewBox="0 0 1024 576" enable-background="new 0 0 1024 576" xml:space="preserve">
<path fill="#000000" opacity="1.000000" stroke="none" 
	d="
M797.332397,325.244049 
	C791.625671,339.699188 786.071899,353.799438 780.433289,367.865662 
	C778.481079,372.735352 775.764099,377.106445 771.063965,379.843170 
	C763.866089,384.034302 754.284241,381.610565 751.144775,374.854004 
	C749.085754,370.422729 750.204590,366.094574 754.103760,363.407288 
	C758.057495,360.682343 762.466370,361.087646 765.882935,364.490082 
	C770.724609,369.311859 772.141907,369.037872 775.026550,362.723206 
	C775.164978,362.420105 775.273193,362.097015 775.451538,361.819275 
	C783.315369,349.570740 782.180603,337.871826 775.586182,325.026154 
	C767.772217,309.804871 761.948120,293.563904 755.202515,277.790192 
	C754.238647,275.536255 753.503906,272.270355 750.906067,272.066864 
	C746.492737,271.721161 741.967590,272.290588 737.543884,272.882721 
	C736.095093,273.076660 736.343323,275.068451 736.342346,276.372559 
	C736.328979,295.202789 736.413330,314.033539 736.278259,332.862793 
	C736.249329,336.898010 739.259094,339.296967 741.172424,343.359192 
	C729.159241,343.359192 717.804321,343.359192 705.366882,343.359192 
	C714.066956,332.772858 709.959534,321.124359 710.544128,310.160675 
	C711.119995,299.360107 710.552734,288.502747 710.712708,277.673645 
	C710.767212,273.983337 709.856750,271.888092 705.729492,272.269043 
	C703.385620,272.485352 701.886841,271.505951 701.884094,268.875183 
	C701.881104,266.041229 703.768616,265.571045 705.925110,265.737946 
	C709.762146,266.034943 710.855835,264.163208 710.691406,260.632416 
	C710.497803,256.475983 710.635742,252.302505 710.677856,248.136887 
	C710.788879,237.165176 715.568542,230.714615 726.137451,227.731247 
	C732.716553,225.874084 739.370850,225.925339 745.683472,228.815308 
	C749.922485,230.755997 752.742004,234.061951 752.094849,239.049606 
	C751.617249,242.730164 749.136047,244.972397 745.458923,245.572845 
	C740.577576,246.369949 737.077820,244.219498 734.727844,240.046799 
	C733.913025,238.600067 733.339722,237.019394 732.591492,235.532471 
	C731.906189,234.170578 731.085266,232.677612 729.272522,233.105881 
	C727.470337,233.531647 726.608154,235.082718 726.435425,236.839157 
	C726.097473,240.273911 727.780151,243.044159 729.993652,245.338058 
	C734.477478,249.984695 737.421387,255.042892 736.374207,261.836700 
	C735.803406,265.540009 738.440430,265.683868 741.168335,265.677002 
	C754.499329,265.643585 767.830627,265.652557 781.161621,265.702118 
	C783.053284,265.709167 785.153687,265.176483 787.246582,267.410797 
	C778.089417,272.839996 783.617432,279.347046 785.853027,285.527740 
	C788.789551,293.646118 792.075684,301.638062 795.781982,311.148560 
	C798.231445,304.971191 800.170349,300.138916 802.064575,295.289154 
	C804.245361,289.705780 806.283447,284.064209 808.577148,278.528168 
	C810.466614,273.967804 809.747864,270.747772 804.633728,269.293121 
	C803.593201,268.997192 802.848328,268.447144 802.637817,266.424408 
	C810.446655,264.996338 818.174133,265.721375 825.692200,266.003265 
	C826.096619,267.918030 825.751282,268.763794 824.932129,269.053253 
	C818.489258,271.329926 816.371094,276.900177 814.167603,282.599518 
	C808.703186,296.733154 803.037048,310.788788 797.332397,325.244049 
z"/>
<path fill="#000000" opacity="1.000000" stroke="none" 
	d="
M609.225464,341.425842 
	C593.964294,349.860352 576.983826,344.802216 570.487488,329.124451 
	C563.064026,311.209045 563.798340,293.162415 574.262024,276.450470 
	C582.889160,262.671753 598.819092,259.101776 613.175171,266.854279 
	C614.021423,267.311279 614.921448,267.668701 616.569580,268.429199 
	C616.569580,260.136414 616.603271,252.406967 616.538635,244.678345 
	C616.526917,243.278549 615.382935,242.373886 614.495667,241.360275 
	C611.625122,238.080719 612.080933,236.369339 616.414795,235.175858 
	C623.011963,233.359100 629.487854,231.291382 635.676147,228.318497 
	C641.682068,225.433273 643.078552,226.348053 643.076111,232.930359 
	C643.064575,263.929657 643.014465,294.928925 643.025085,325.928223 
	C643.027039,331.666016 642.027039,337.695557 647.513733,342.149811 
	C646.612671,342.880219 646.163391,343.560822 645.648315,343.614838 
	C637.010742,344.520294 628.338684,344.176361 619.700806,343.833008 
	C614.979065,343.645264 617.675049,339.007141 616.132812,336.247009 
	C613.917053,337.918518 611.725220,339.571991 609.225464,341.425842 
M593.364746,291.869446 
	C593.136108,293.849243 592.839111,295.823944 592.690247,297.809723 
	C591.927063,307.993317 591.939453,318.126862 596.388245,327.622253 
	C598.880493,332.941559 603.362915,334.946136 608.701782,333.682495 
	C613.883667,332.455963 616.766907,328.611633 616.777100,322.882324 
	C616.786316,317.726990 616.782410,312.571594 616.772156,307.416229 
	C616.755920,299.267578 616.836670,291.116821 616.673523,282.970978 
	C616.542725,276.438965 613.057922,271.760895 608.178711,271.057770 
	C602.402466,270.225372 598.495911,272.932770 596.174683,279.879242 
	C594.969177,283.486633 594.341064,287.286987 593.364746,291.869446 
z"/>
<path fill="#000000" opacity="1.000000" stroke="none" 
	d="
M330.369843,299.005005 
	C330.369781,308.497406 330.443298,317.491913 330.343536,326.484528 
	C330.275391,332.623352 330.878387,338.265533 337.897766,340.548218 
	C338.178253,340.639435 338.426178,340.965698 338.590302,341.241394 
	C338.751709,341.512421 338.786865,341.858612 338.903900,342.263519 
	C338.299530,344.394379 336.433105,344.110504 334.858704,344.116180 
	C323.033813,344.158661 311.208710,344.149689 299.383728,344.128784 
	C297.915710,344.126190 296.081909,344.445435 295.362793,342.823853 
	C294.418091,340.693604 296.507202,340.016235 297.761841,339.078186 
	C300.727173,336.861115 301.621094,333.702515 301.625610,330.278381 
	C301.663849,301.298798 301.645416,272.319092 301.631897,243.339447 
	C301.630096,239.466492 300.466797,236.144730 297.033447,233.910614 
	C295.935944,233.196442 294.741577,232.440552 295.212524,230.678009 
	C296.624908,229.054214 298.580505,229.677109 300.304932,229.673874 
	C324.454590,229.628448 348.604950,229.725922 372.753448,229.551224 
	C376.657166,229.522995 378.649170,230.581772 378.931366,234.588348 
	C379.258026,239.226959 379.858917,243.845856 380.218353,248.482788 
	C380.330536,249.930054 380.414032,251.631317 378.374908,252.039963 
	C376.542603,252.407166 375.559082,251.291275 374.960907,249.801971 
	C370.440704,238.548065 361.169128,235.208664 350.119019,234.953262 
	C346.129639,234.861069 342.116547,234.890121 338.143555,235.218338 
	C332.953247,235.647141 330.582916,237.966644 330.466461,243.216751 
	C330.244904,253.204803 330.422577,263.201202 330.367828,273.193787 
	C330.353729,275.762756 331.538147,276.788361 334.012604,276.757660 
	C339.507629,276.689514 345.017792,276.929077 350.495026,276.599121 
	C355.879913,276.274719 360.042572,273.839417 361.647064,268.227661 
	C362.165070,266.415955 362.735687,264.542358 365.224945,264.956940 
	C367.549713,265.344177 367.258392,267.303436 367.267944,268.900085 
	C367.311707,276.227936 367.310516,283.556488 367.249207,290.884155 
	C367.234436,292.650391 367.510315,294.816437 364.858459,295.069611 
	C362.601593,295.285126 362.143951,293.545654 361.812622,291.864044 
	C360.624176,285.832916 356.048584,283.895538 350.844147,283.465149 
	C345.383972,283.013611 339.858917,283.401184 334.365540,283.275604 
	C331.304718,283.205627 330.233032,284.584351 330.343414,287.515594 
	C330.481201,291.174286 330.372070,294.842285 330.369843,299.005005 
z"/>
<path fill="#000000" opacity="1.000000" stroke="none" 
	d="
M460.217926,278.891846 
	C471.094757,295.849304 470.045197,320.075012 458.114288,332.740326 
	C446.123596,345.469116 426.098145,349.342468 409.232208,342.195282 
	C393.665710,335.598694 385.580444,321.350128 386.472076,302.085327 
	C387.338074,283.373871 396.251587,270.932465 412.733215,265.430298 
	C430.492096,259.501678 448.216492,264.440155 460.217926,278.891846 
M422.754120,339.088226 
	C430.643738,340.886841 434.799133,338.849487 437.782318,331.601685 
	C438.538025,329.765686 439.200165,327.859100 439.622742,325.923218 
	C442.496460,312.758392 442.225677,299.540741 440.095886,286.310608 
	C439.378052,281.851776 438.291138,277.502533 435.681732,273.711914 
	C431.161835,267.145935 423.440521,266.937988 418.545990,273.238129 
	C416.242096,276.203674 415.186462,279.718597 414.403595,283.298584 
	C411.599823,296.120239 411.617310,309.075378 413.609436,321.941437 
	C414.583649,328.233307 415.735229,334.920013 422.754120,339.088226 
z"/>
<path fill="#000000" opacity="1.000000" stroke="none" 
	d="
M544.238525,336.307281 
	C533.459961,344.847992 521.278748,347.236389 508.566193,344.821411 
	C483.505096,340.060669 475.139557,322.184875 476.296539,301.915283 
	C477.630096,278.551117 490.193634,265.521851 513.558289,263.331635 
	C536.040283,261.224182 556.070557,275.567841 557.331665,300.870636 
	C558.007446,314.427643 555.365723,326.739349 544.238525,336.307281 
M531.614868,303.709412 
	C530.854919,295.617462 530.924561,287.410034 528.392822,279.560486 
	C526.140076,272.576019 521.997009,268.657135 516.932678,268.603363 
	C511.575653,268.546478 507.788513,272.007477 505.324371,279.245728 
	C504.949921,280.345612 504.626678,281.466858 504.349609,282.595398 
	C501.739105,293.228943 501.851715,304.067200 502.609741,314.836273 
	C503.059692,321.229187 503.700989,327.797241 507.045380,333.613098 
	C510.116211,338.953247 514.543274,341.065735 519.988892,339.554199 
	C524.266235,338.366974 526.382812,334.959656 527.845215,331.128571 
	C531.102051,322.596466 531.420715,313.621643 531.614868,303.709412 
z"/>
<path fill="#000000" opacity="1.000000" stroke="none" 
	d="
M661.265625,271.093109 
	C668.472778,269.383362 675.120422,267.349915 681.504639,264.371063 
	C688.357483,261.173553 689.327759,261.881104 689.332520,269.242828 
	C689.344299,287.395203 689.305542,305.547638 689.345276,323.699921 
	C689.359619,330.232513 687.888977,337.137878 693.941528,342.761322 
	C682.181152,344.768341 670.805664,343.944244 659.023926,343.023438 
	C665.231934,336.735779 663.586121,329.479950 663.625061,322.625336 
	C663.695129,310.302094 663.632629,297.978149 663.651062,285.654541 
	C663.656372,282.098419 663.530273,278.793915 660.144531,276.336639 
	C657.885437,274.697083 658.372437,272.617462 661.265625,271.093109 
z"/>
<path fill="#000000" opacity="1.000000" stroke="none" 
	d="
M228.980408,235.010071 
	C240.343124,224.769165 254.494415,227.465424 261.096436,240.816971 
	C266.203979,251.146194 265.061340,263.827972 258.343811,271.367096 
	C249.686844,281.082886 234.128647,279.845856 226.892853,268.866455 
	C220.335449,258.916473 221.118256,244.618668 228.980408,235.010071 
z"/>
<path fill="#000000" opacity="1.000000" stroke="none" 
	d="
M224.035126,334.517609 
	C221.732162,326.317780 221.877060,318.664551 225.670624,311.333862 
	C232.418167,298.294800 250.299973,296.775146 258.854370,308.677612 
	C263.832947,315.604828 265.551758,323.494232 263.600891,331.929169 
	C261.198120,342.318146 254.558197,348.636688 245.578293,349.308533 
	C235.537598,350.059662 228.413345,345.264374 224.035126,334.517609 
z"/>
<path fill="#000000" opacity="1.000000" stroke="none" 
	d="
M682.882324,247.221283 
	C677.296753,249.148499 672.043335,249.197830 666.940735,247.133530 
	C662.883545,245.492126 660.672974,242.313522 660.724304,237.818466 
	C660.775146,233.367859 663.475830,230.822571 667.298523,229.359543 
	C671.587463,227.718033 675.992065,227.483490 680.502075,228.665833 
	C685.071106,229.863647 688.423035,232.276886 689.146484,237.161743 
	C689.852844,241.931473 687.347412,245.042130 682.882324,247.221283 
z"/>
</svg>